<?xml version="1.0" encoding="utf-8"?>
<!-- Generator: Adobe Illustrator 25.2.3, SVG Export Plug-In . SVG Version: 6.00 Build 0)  -->
<svg version="1.1" id="Layer_1" xmlns="http://www.w3.org/2000/svg" xmlns:xlink="http://www.w3.org/1999/xlink" x="0px" y="0px"
	 viewBox="0 0 100 100" style="enable-background:new 0 0 100 100;" xml:space="preserve">
<path d="M89.25,70.75c-0.53-0.42-1.16-0.67-1.82-0.72l-0.44-3.73c-0.28-2.46-2.2-4.39-4.58-4.67l-11.37-1.99l-4.46-12.91
	c-0.01-0.04-0.03-0.07-0.04-0.1c-0.94-2.19-3.16-3.47-5.54-3.19l-2.11,0.25l-0.35-2.97l2.11-0.25c0.82-0.1,1.41-0.84,1.31-1.67
	c-0.1-0.82-0.85-1.42-1.67-1.31l-3.6,0.42c0,0,0,0,0,0c0,0,0,0,0,0l-2.21,0.26l-0.58-4.94c-0.1-0.88-0.54-1.67-1.24-2.21
	c-0.7-0.55-1.57-0.8-2.44-0.69l-2.86,0.34c0,0-0.01,0-0.01,0c0,0,0,0-0.01,0l-4.65,0.55l-0.35-3.02c-0.22-1.81-1.89-3.12-3.68-2.9
	l-16.13,1.9c-0.88,0.1-1.67,0.54-2.21,1.24c-0.55,0.7-0.79,1.56-0.69,2.44l0.22,1.87c0.1,0.82,0.83,1.42,1.66,1.32
	c0.82-0.1,1.41-0.84,1.32-1.66l-0.22-1.87c-0.01-0.11,0.03-0.18,0.07-0.23c0.04-0.05,0.1-0.1,0.21-0.12l16.13-1.91
	c0.15-0.02,0.33,0.1,0.35,0.27l0.35,3.02l-2.76,0.33c0,0,0,0,0,0s0,0,0,0l-2.86,0.34c-1.81,0.21-3.12,1.86-2.9,3.68l0.58,4.94
	l-7.83,0.92l-0.52-4.43c-0.1-0.82-0.85-1.42-1.67-1.31c-0.82,0.1-1.41,0.84-1.31,1.67l0.52,4.43l-6.42,0.76
	c-0.82,0.1-1.41,0.84-1.31,1.67c0.09,0.76,0.74,1.32,1.49,1.32c0.06,0,0.12,0,0.18-0.01l2.11-0.25l0.35,2.97l-2.12,0.25
	c-2.92,0.35-5.02,3.01-4.68,5.93l1.31,11.08c-2.07-0.13-4.08,0.29-6,1.27C5.32,67.39,5,67.99,5.07,68.61l0.61,5.21
	c0.1,0.82,0.86,1.41,1.66,1.32c0.82-0.1,1.41-0.84,1.32-1.66l-0.48-4.11c1.32-0.5,2.66-0.67,4.06-0.48l1.36,11.51
	c-1.31,0.63-2.65,0.79-4.07,0.48l-0.28-2.37c-0.1-0.82-0.84-1.42-1.67-1.31c-0.82,0.1-1.41,0.84-1.31,1.67l0.4,3.37
	c0.07,0.57,0.46,1.05,1,1.24c1.1,0.38,2.18,0.57,3.25,0.57c1.1,0,2.18-0.23,3.23-0.63c0.79,2.02,2.75,3.4,4.96,3.4
	c0.21,0,0.41-0.01,0.62-0.04l3.9-0.46c0.34,1.47,1.05,2.81,2.05,3.92c-3.75-0.22-7.36,0.51-10.8,2.18
	c-0.74,0.36-1.05,1.26-0.69,2.01c0.36,0.75,1.26,1.05,2.01,0.69c5.33-2.59,10.92-2.58,17.11,0.03c0.19,0.08,0.39,0.12,0.58,0.12
	c0.58,0,1.14-0.34,1.38-0.92c0.23-0.55,0.11-1.16-0.27-1.58c1.68-0.53,3.17-1.55,4.29-2.97c1.27-1.6,1.92-3.55,1.91-5.56l21.68-2.56
	c0.46,1.96,1.55,3.7,3.15,4.96c0.23,0.18,0.47,0.35,0.71,0.51c-0.83,0.09-1.65,0.22-2.47,0.38c-0.02-0.01-0.03-0.02-0.05-0.03
	c-6.93-2.93-13.52-2.92-19.59,0.03c-0.74,0.36-1.05,1.26-0.69,2.01s1.26,1.05,2.01,0.69c4.18-2.04,8.54-2.46,13.21-1.28
	c-1.1,0.4-2.2,0.86-3.28,1.39c-0.74,0.36-1.05,1.26-0.69,2.01c0.26,0.53,0.79,0.84,1.35,0.84c0.22,0,0.45-0.05,0.66-0.15
	c6.35-3.1,13.16-3.86,20.25-2.28c0.81,0.18,1.61-0.33,1.79-1.14c0.18-0.81-0.33-1.61-1.14-1.79c-0.74-0.16-1.47-0.3-2.2-0.42
	c2.76-1.56,4.56-4.53,4.55-7.8l5.41-0.64c1.42-0.17,2.68-0.88,3.57-2c0.88-1.12,1.28-2.51,1.11-3.93
	C90.42,72.13,89.97,71.31,89.25,70.75z M61.36,46.42c1.02-0.13,1.99,0.42,2.41,1.35l4.13,11.93L55.7,61.13l-1.63-13.86L61.36,46.42z
	 M55.91,44.04l-3.63,0.43c-0.02,0-0.04,0-0.06,0c-0.02,0-0.03,0.01-0.05,0.01l-3.34,0.39c-0.82,0.1-1.41,0.84-1.31,1.67
	c0.1,0.82,0.84,1.42,1.67,1.31l1.9-0.22l1.63,13.86l-10.62,1.25l-1.64-13.86l3.68-0.43c0.82-0.1,1.41-0.84,1.32-1.67
	c-0.1-0.82-0.85-1.41-1.67-1.32l-3.68,0.43l-0.35-2.96l2.76-0.32c0.01,0,0.03-0.01,0.04-0.01l10.78-1.27c0,0,0,0,0,0l2.21-0.26
	L55.91,44.04z M28.51,64.34l-1.64-13.87l10.62-1.25l1.64,13.86L28.51,64.34z M46.22,33.82l0.62,5.25l-7.42,0.88L38.8,34.7
	L46.22,33.82z M50.58,33.31c0.01,0,0.03,0,0.04,0c0.09,0,0.15,0.04,0.19,0.07c0.05,0.04,0.11,0.1,0.12,0.21l0.58,4.94l-1.69,0.2
	l-0.62-5.25L50.58,33.31z M34.45,35.21l1.38-0.16l0.62,5.25l-1.69,0.2l-0.58-4.94C34.15,35.39,34.28,35.23,34.45,35.21z M20,45.26
	l2.79-0.33c0.01,0,0.02,0,0.02,0l13.98-1.65l0.35,2.96l-12.1,1.43c0,0-0.01,0-0.01,0c0,0,0,0-0.01,0l-4.68,0.55L20,45.26z
	 M15.61,51.8l3.56-0.42c0.01,0,0.03,0,0.04,0c0.01,0,0.02,0,0.03-0.01l4.66-0.55l1.63,13.87l-10.62,1.25L13.56,54.4
	C13.41,53.12,14.33,51.96,15.61,51.8z M19.38,83.78c-1.28,0.15-2.44-0.77-2.6-2.05l-0.08-0.69c0,0,0-0.01,0-0.01l-0.68-5.8
	l3.01-0.36c0.82-0.1,1.41-0.84,1.31-1.67c-0.1-0.82-0.84-1.42-1.67-1.31l-3.01,0.36l-0.39-3.33l12.1-1.43c0,0,0,0,0,0c0,0,0,0,0,0
	l25.7-3.03l1.78,15.13l-14.19,1.67c-1.36-3.82-5.22-6.34-9.42-5.84c-4.19,0.49-7.36,3.84-7.8,7.87L19.38,83.78z M36.93,87.92
	c-0.98,1.24-2.38,2.02-3.95,2.21c-1.57,0.18-3.11-0.25-4.35-1.23c-1.24-0.98-2.02-2.38-2.21-3.95c-0.18-1.57,0.25-3.11,1.23-4.35
	c0.98-1.24,2.38-2.02,3.94-2.21c0.23-0.03,0.47-0.04,0.7-0.04c1.32,0,2.59,0.44,3.65,1.27c1.24,0.98,2.02,2.38,2.21,3.94
	S37.9,86.68,36.93,87.92z M87.06,75.1c-0.39,0.49-0.94,0.8-1.56,0.88l-5.59,0.66c-1.38-3.83-5.27-6.33-9.42-5.84
	c-0.89,0.11-1.75,0.34-2.53,0.69c-0.76,0.34-1.1,1.22-0.76,1.98s1.22,1.1,1.98,0.76c0.51-0.23,1.08-0.38,1.67-0.45
	c3.08-0.35,5.93,1.73,6.5,4.82c0.02,0.11,0.04,0.22,0.06,0.35c0.38,3.23-1.95,6.17-5.18,6.56c-1.57,0.18-3.11-0.25-4.34-1.23
	c-1.24-0.98-2.02-2.38-2.21-3.97c-0.01-0.1-0.02-0.2-0.03-0.38c-0.06-1.04,0.16-2.04,0.63-2.97c0.38-0.74,0.08-1.64-0.66-2.02
	c-0.74-0.38-1.64-0.08-2.02,0.66c-0.49,0.97-0.79,2.02-0.9,3.07l-4.86,0.57l-1.04-8.82l3.02-0.36c0.82-0.1,1.41-0.84,1.31-1.67
	c-0.1-0.82-0.85-1.43-1.67-1.31l-3.02,0.36l-0.39-3.33l13.84-1.63l12.09,2.11c1.08,0.13,1.91,0.96,2.03,2.04l0.43,3.67l-1.14,0.13
	c-0.82,0.1-1.41,0.84-1.31,1.67c0.1,0.82,0.84,1.41,1.67,1.31l3.43-0.4c0.14-0.01,0.25,0.04,0.31,0.09
	c0.06,0.05,0.14,0.14,0.16,0.28C87.62,74,87.45,74.61,87.06,75.1z M34.86,81.01c-0.87-0.68-1.95-0.99-3.05-0.86
	c-2.27,0.27-3.89,2.33-3.63,4.6c0.25,2.1,2.04,3.66,4.11,3.66c0.16,0,0.32-0.01,0.49-0.03c1.1-0.13,2.08-0.68,2.77-1.55
	s0.99-1.95,0.86-3.05C36.27,82.68,35.72,81.7,34.86,81.01z M33.19,84.97c-0.19,0.24-0.46,0.39-0.76,0.43c-0.6,0.08-1.19-0.37-1.27-1
	c-0.07-0.62,0.38-1.19,1-1.27c0.05,0,0.09-0.01,0.14-0.01c0.25,0,0.5,0.08,0.7,0.25c0.24,0.19,0.39,0.46,0.43,0.76
	C33.46,84.43,33.37,84.73,33.19,84.97z M71.54,83.78c0.16,0,0.32-0.01,0.49-0.03c2.27-0.27,3.89-2.33,3.63-4.6
	c-0.13-1.1-0.68-2.08-1.55-2.77c-0.87-0.68-1.95-0.99-3.05-0.86c-1.1,0.13-2.08,0.68-2.77,1.55s-0.99,1.95-0.86,3.05
	C67.67,82.23,69.47,83.78,71.54,83.78z M70.64,78.93c0.19-0.24,0.46-0.39,0.76-0.43c0.05,0,0.09-0.01,0.14-0.01
	c0.25,0,0.5,0.08,0.7,0.25c0.24,0.19,0.39,0.46,0.43,0.76c0.07,0.62-0.38,1.19-1,1.27c-0.64,0.08-1.19-0.38-1.27-1
	C70.37,79.47,70.45,79.17,70.64,78.93z M23.36,74.35c-0.75,0-1.4-0.56-1.49-1.32c-0.1-0.82,0.49-1.57,1.31-1.67l4.5-0.53
	c0.82-0.11,1.57,0.49,1.67,1.31c0.1,0.82-0.49,1.57-1.31,1.67l-4.5,0.53C23.47,74.35,23.41,74.35,23.36,74.35z M30.88,71.97
	c-0.1-0.82,0.49-1.57,1.31-1.67l4.5-0.53c0.82-0.1,1.57,0.49,1.67,1.31c0.1,0.82-0.49,1.57-1.31,1.67l-4.5,0.53
	c-0.06,0.01-0.12,0.01-0.18,0.01C31.61,73.29,30.97,72.73,30.88,71.97z M70.14,67.34c0.1,0.82-0.49,1.57-1.31,1.67l-4.5,0.53
	c-0.06,0.01-0.12,0.01-0.18,0.01c-0.75,0-1.4-0.56-1.49-1.32c-0.1-0.82,0.49-1.57,1.31-1.67l4.5-0.53
	C69.3,65.91,70.04,66.51,70.14,67.34z M79.15,66.27c0.1,0.82-0.49,1.57-1.31,1.67l-4.5,0.53c-0.06,0.01-0.12,0.01-0.18,0.01
	c-0.75,0-1.4-0.56-1.49-1.32c-0.1-0.82,0.49-1.57,1.31-1.67l4.5-0.53C78.3,64.86,79.05,65.45,79.15,66.27z M40.33,73.3
	c-0.52-1.23,0.06-2.64,1.28-3.16c1.23-0.52,2.64,0.06,3.16,1.28c0.09,0.21,0.14,0.43,0.16,0.65c0.35-0.37,0.78-0.67,1.26-0.88
	c0.49-0.21,1-0.3,1.51-0.3c-0.14-0.17-0.26-0.36-0.35-0.57c-0.52-1.23,0.06-2.64,1.28-3.16c1.23-0.52,2.64,0.06,3.16,1.28
	c0.52,1.23-0.06,2.64-1.28,3.16c-0.15,0.06-0.31,0.11-0.46,0.14c0.47,0.38,0.86,0.86,1.11,1.45c0.39,0.93,0.4,1.96,0.02,2.9
	c-0.38,0.94-1.11,1.67-2.04,2.07c-0.48,0.2-0.98,0.3-1.47,0.3c-1.48,0-2.89-0.87-3.5-2.32c-0.25-0.58-0.32-1.2-0.27-1.81
	c-0.13,0.09-0.27,0.17-0.42,0.23C42.27,75.1,40.85,74.53,40.33,73.3z M86.51,92.26c-0.24,0.57-0.8,0.91-1.38,0.91
	c-0.2,0-0.4-0.04-0.59-0.12c-0.74-0.32-1.52-0.62-2.38-0.93c-0.78-0.28-1.19-1.13-0.91-1.92c0.28-0.78,1.13-1.19,1.92-0.91
	c0.92,0.33,1.76,0.65,2.56,1C86.48,90.62,86.83,91.5,86.51,92.26z M64.04,23.37h9.49c3.8,6.38,6.49,13.03,7.97,19.76
	c0.53,2.42-0.9,4.79-3.27,5.4l-6.37,1.63c-0.8,0.21-1.29,1.02-1.08,1.83c0.17,0.68,0.78,1.13,1.45,1.13c0.12,0,0.25-0.01,0.37-0.05
	l2.99-0.77c0.03,0.08,0.04,0.17,0.08,0.25c0.52,1.23,1.94,1.8,3.16,1.28c1.12-0.47,1.69-1.7,1.38-2.84
	c2.71-1.23,4.43-3.94,4.39-6.93c0.25-0.02,0.5-0.07,0.74-0.17c1.23-0.52,1.8-1.94,1.28-3.16c-0.49-1.17-1.79-1.73-2.98-1.34
	c-0.75-2.75-1.69-5.48-2.81-8.18c0.03-0.01,0.06-0.01,0.08-0.03c1.23-0.52,1.8-1.94,1.28-3.16c-0.52-1.23-1.94-1.8-3.16-1.28
	c-0.07,0.03-0.13,0.07-0.2,0.11c-0.97-1.94-2.02-3.86-3.18-5.76c-0.01-0.01-0.01-0.02-0.02-0.03c-0.03-0.05-0.07-0.09-0.1-0.13
	c-0.03-0.04-0.05-0.07-0.09-0.1c-0.03-0.03-0.07-0.06-0.1-0.09c-0.04-0.03-0.08-0.07-0.12-0.1c-0.04-0.03-0.08-0.05-0.12-0.07
	c-0.04-0.02-0.09-0.05-0.13-0.07c-0.04-0.02-0.09-0.03-0.13-0.05c-0.05-0.02-0.1-0.03-0.15-0.05c-0.04-0.01-0.08-0.01-0.12-0.02
	c-0.06-0.01-0.11-0.02-0.17-0.02c-0.01,0-0.02,0-0.03,0H64.04c-1.12,0-2.03-0.91-2.03-2.03c0-0.98,0.7-1.82,1.66-2l12.47-2.31
	c2.21,2.62,4.21,5.33,5.95,8.07c0.29,0.45,0.77,0.7,1.27,0.7c0.28,0,0.55-0.08,0.8-0.23c0.7-0.44,0.91-1.37,0.46-2.07
	c-1.31-2.07-2.78-4.11-4.35-6.12c0.49-0.11,0.97-0.29,1.43-0.53c0,0,0,0,0,0c1.81-0.98,2.97-2.86,3.02-4.91
	c0.01-0.53-0.25-1.03-0.71-1.31c-1.75-1.09-3.96-1.16-5.77-0.18c-1.44,0.78-2.45,2.13-2.84,3.68l-0.91,0.17l0.81-2.65
	c0.63-0.36,1.06-1.03,1.06-1.8c0-1.15-0.93-2.08-2.08-2.08c-1.15,0-2.08,0.93-2.08,2.08c0,0.33,0.09,0.65,0.23,0.93l-1.27,4.14
	l-1.67,0.31l0.9-2.94c0.63-0.36,1.06-1.03,1.06-1.8c0-1.15-0.93-2.08-2.08-2.08c-1.15,0-2.08,0.93-2.08,2.08
	c0,0.33,0.09,0.65,0.23,0.93l-1.36,4.43l-3.07,0.57C60.74,13.83,59,15.91,59,18.34C59,21.11,61.26,23.37,64.04,23.37z M79.68,10.08
	c0.58-0.31,1.23-0.4,1.85-0.28c-0.24,0.59-0.67,1.08-1.25,1.39c-0.57,0.31-1.23,0.4-1.85,0.28C78.67,10.89,79.1,10.39,79.68,10.08z
	 M73.98,15.64c0.83,0,1.5,0.67,1.5,1.5s-0.67,1.5-1.5,1.5s-1.5-0.67-1.5-1.5S73.15,15.64,73.98,15.64z M94.94,54.92v6.13
	c0,0.83-0.67,1.5-1.5,1.5s-1.5-0.67-1.5-1.5v-6.13c0-1.75-0.1-3.49-0.26-5.22c-1.06,0.15-2.13-0.41-2.56-1.44
	c-0.52-1.23,0.06-2.64,1.28-3.16c0.22-0.09,0.44-0.14,0.66-0.16c-0.52-2.98-1.27-5.92-2.25-8.82c-1.15,0.32-2.39-0.24-2.87-1.37
	c-0.5-1.18,0.02-2.53,1.16-3.09c-0.68-1.59-1.41-3.17-2.23-4.73c-0.39-0.73-0.11-1.64,0.63-2.03c0.73-0.38,1.64-0.11,2.03,0.63
	C92.45,34.84,94.94,44.73,94.94,54.92z M85.88,52.89c1.23-0.52,2.64,0.06,3.16,1.28c0.52,1.23-0.06,2.64-1.28,3.16
	c-1.23,0.52-2.64-0.06-3.16-1.28C84.08,54.83,84.65,53.41,85.88,52.89z"/>
</svg>
